HIERARCHY
ROOT Hips
{
	OFFSET 0.000000 0.000000 0.000000
	CHANNELS 6 Xposition Yposition Zposition Yrotation Xrotation Zrotation
	JOINT Chest
	{
		OFFSET 0.000000 -0.009281 11.569106
		CHANNELS 3 Yrotation Xrotation Zrotation
		JOINT Chest2
		{
			OFFSET -0.000000 0.016865 9.269641
			CHANNELS 3 Yrotation Xrotation Zrotation
			JOINT Chest3
			{
				OFFSET -0.000000 0.000001 8.374491
				CHANNELS 3 Yrotation Xrotation Zrotation
				JOINT Chest4
				{
					OFFSET -0.000000 0.000001 8.374493
					CHANNELS 3 Yrotation Xrotation Zrotation
					JOINT Neck
					{
						OFFSET -0.000000 0.000002 12.152554
						CHANNELS 3 Yrotation Xrotation Zrotation
						JOINT Head
						{
							OFFSET -0.000000 0.040101 7.802319
							CHANNELS 3 Yrotation Xrotation Zrotation
							End Site
							{
								OFFSET -0.000000 0.020947 14.853096
							}
						}
					}
					JOINT RightCollar
					{
						OFFSET 2.894404 0.000001 6.791374
						CHANNELS 3 Yrotation Xrotation Zrotation
						JOINT RightShoulder
						{
							OFFSET 13.574684 0.000001 0.000000
							CHANNELS 3 Yrotation Xrotation Zrotation
							JOINT RightElbow
							{
								OFFSET 23.923903 0.000002 0.000000
								CHANNELS 3 Yrotation Xrotation Zrotation
								JOINT RightWrist
								{
									OFFSET 19.846718 0.012767 0.000000
									CHANNELS 3 Yrotation Xrotation Zrotation
									End Site
									{
										OFFSET 14.973145 0.000001 0.000000
									}
								}
							}
						}
					}
					JOINT LeftCollar
					{
						OFFSET -2.894404 0.000001 6.791374
						CHANNELS 3 Yrotation Xrotation Zrotation
						JOINT LeftShoulder
						{
							OFFSET -13.574684 -0.000001 0.000000
							CHANNELS 3 Yrotation Xrotation Zrotation
							JOINT LeftElbow
							{
								OFFSET -23.923903 -0.000002 0.000000
								CHANNELS 3 Yrotation Xrotation Zrotation
								JOINT LeftWrist
								{
									OFFSET -19.846718 0.012763 0.000000
									CHANNELS 3 Yrotation Xrotation Zrotation
									End Site
									{
										OFFSET -14.973145 -0.000001 0.000000
									}
								}
							}
						}
					}
				}
			}
		}
	}
	JOINT RightHip
	{
		OFFSET 9.469263 0.004643 0.045487
		CHANNELS 3 Yrotation Xrotation Zrotation
		JOINT RightKnee
		{
			OFFSET 0.000000 0.002661 -40.478676
			CHANNELS 3 Yrotation Xrotation Zrotation
			JOINT RightAnkle
			{
				OFFSET 0.000000 0.049106 -35.224068
				CHANNELS 3 Yrotation Xrotation Zrotation
				JOINT RightToe
				{
					OFFSET -0.000001 12.539529 -6.151390
					CHANNELS 3 Yrotation Xrotation Zrotation
					End Site
					{
						OFFSET -0.000001 5.044994 -1.291870
					}
				}
			}
		}
	}
	JOINT LeftHip
	{
		OFFSET -9.469263 0.004641 0.045487
		CHANNELS 3 Yrotation Xrotation Zrotation
		JOINT LeftKnee
		{
			OFFSET 0.000000 0.002661 -40.478676
			CHANNELS 3 Yrotation Xrotation Zrotation
			JOINT LeftAnkle
			{
				OFFSET 0.000000 0.049106 -35.224068
				CHANNELS 3 Yrotation Xrotation Zrotation
				JOINT LeftToe
				{
					OFFSET -0.000001 12.539529 -6.151390
					CHANNELS 3 Yrotation Xrotation Zrotation
					End Site
					{
						OFFSET -0.000001 5.044994 -1.291870
					}
				}
			}
		}
	}
}
MOTION
Frames: 7
Frame Time: 0.016667
6.342309 2.336687 83.111176 -6.983080 -2.444161 -105.563736 -1.366679 -2.938807 1.071571 -0.610726 -1.307891 0.431976 -0.610726 -1.307892 0.431975 -0.457100 -0.981352 0.322661 4.173324 -18.513038 -16.369295 2.457459 1.193531 -28.679247 4.298276 6.643611 -2.615200 54.944091 24.915668 50.025771 -0.918286 57.878695 4.189250 -73.920091 31.640510 0.368501 -8.986599 4.505084 -8.042066 -37.872777 -26.544924 5.304559 -24.274381 -63.298785 -58.234193 -31.042213 -27.648104 31.498257 0.790925 -7.645072 1.730178 0.992107 -4.794645 0.277305 -0.593613 5.538182 -3.570851 -0.126658 -0.012082 0.030002 0.100064 -7.475275 -0.051908 0.163247 -3.384640 2.338360 0.730811 3.756402 0.176618 0.014657 -0.063817 -0.030459 
6.289822 2.276752 83.112442 -6.925511 -2.420594 -105.604656 -1.405171 -2.982494 1.153909 -0.629228 -1.327333 0.470699 -0.629228 -1.327332 0.470701 -0.470879 -0.995986 0.351641 4.192454 -18.384030 -16.475169 2.436495 1.420485 -28.878518 4.281035 6.881381 -2.550880 54.959834 24.521981 51.142606 3.210065 58.783627 8.862591 -73.800262 32.145421 0.318310 -8.595718 4.820354 -7.875098 -36.812875 -26.568126 5.198189 -27.398879 -63.709614 -59.423220 -31.523970 -25.378085 30.802569 0.837230 -7.635646 1.716826 0.961473 -4.622017 0.327353 -0.562843 5.444117 -3.562359 -0.150517 -0.029944 0.028361 0.148843 -7.476933 0.163623 0.160331 -3.207830 2.273100 0.658681 3.649041 0.077541 0.026377 -0.059050 -0.028358 
6.244054 2.214631 83.113647 -6.871093 -2.385097 -105.622619 -1.445825 -3.022207 1.235094 -0.650392 -1.344706 0.509067 -0.650393 -1.344706 0.509069 -0.486652 -1.009074 0.380352 4.216471 -18.257972 -16.586447 2.423029 1.642196 -29.086149 4.280974 7.123780 -2.506851 54.955422 24.142043 52.137549 7.915442 59.421410 14.077540 -73.670024 32.592498 0.256293 -8.338439 5.139500 -7.899753 -35.968162 -26.700961 5.314560 -30.286531 -63.926391 -60.440897 -31.809502 -22.311177 30.479859 0.873599 -7.641853 1.669175 0.932962 -4.433173 0.379394 -0.531733 5.351968 -3.548030 -0.171515 -0.047581 0.026303 0.189619 -7.488939 0.357984 0.154657 -3.012849 2.242486 0.574996 3.529098 -0.052797 0.044336 -0.050233 -0.025653 
6.203789 2.152456 83.113632 -6.821380 -2.350463 -105.609287 -1.484234 -3.052138 1.280598 -0.669618 -1.358097 0.531074 -0.669618 -1.358098 0.531073 -0.501011 -1.019157 0.396797 4.234116 -18.141869 -16.679686 2.404979 1.846513 -29.262146 4.301829 7.360568 -2.418606 54.908301 23.781390 52.986261 13.003484 59.645419 19.633785 -73.777846 33.066343 0.115263 -8.099757 5.349503 -7.839620 -35.295228 -26.688507 5.399280 -33.071363 -64.147217 -61.059986 -32.888433 -20.167365 29.451506 0.915191 -7.665202 1.626195 0.901645 -4.233097 0.410573 -0.501170 5.261881 -3.550647 -0.185987 -0.063389 0.024553 0.229477 -7.511154 0.511381 0.154905 -2.806570 2.245331 0.480751 3.406150 -0.202081 0.064386 -0.045194 -0.023789 
6.168012 2.090877 83.110573 -6.766538 -2.316066 -105.581132 -1.529085 -3.099617 1.337177 -0.690258 -1.378954 0.557342 -0.690258 -1.378955 0.557343 -0.516411 -1.034848 0.416430 4.271430 -18.002558 -16.786522 2.413715 2.095480 -29.459046 4.307298 7.577289 -2.387390 54.943678 23.517916 53.845725 18.250001 59.385934 25.246637 -73.898030 33.752852 0.046018 -7.883224 5.471663 -7.845708 -34.643484 -26.353223 5.329016 -36.451179 -64.441107 -60.753775 -34.084690 -18.021201 28.250658 0.960986 -7.684396 1.632283 0.874902 -4.039634 0.404378 -0.482700 5.181071 -3.573806 -0.190366 -0.079398 0.024067 0.269913 -7.535502 0.653071 0.156755 -2.589587 2.222034 0.385859 3.285762 -0.323788 0.082911 -0.047539 -0.023518 
6.131900 2.034325 83.106735 -6.716807 -2.274452 -105.538833 -1.599878 -3.147336 1.422734 -0.722673 -1.401252 0.593979 -0.722673 -1.401252 0.593978 -0.540615 -1.051644 0.443805 4.344294 -17.853232 -16.918083 2.477157 2.366830 -29.690849 4.331539 7.812215 -2.449418 54.942216 23.185393 54.580851 23.512072 58.787909 30.858542 -73.811300 34.338923 0.054150 -7.659291 5.527174 -7.909501 -34.045341 -25.892381 5.031228 -40.362515 -64.618357 -59.534757 -35.029602 -15.195726 27.097124 0.997986 -7.688482 1.723529 0.854092 -3.883246 0.370315 -0.475536 5.112820 -3.652917 -0.187090 -0.088506 0.021642 0.299570 -7.561630 0.781657 0.159135 -2.368084 2.197250 0.290886 3.157964 -0.441502 0.100598 -0.049013 -0.023045 
6.092936 1.987675 83.104454 -6.687693 -2.220944 -105.471248 -1.671678 -3.177319 1.486638 -0.757056 -1.416755 0.620459 -0.757055 -1.416754 0.620460 -0.566324 -1.063338 0.463567 4.409798 -17.712902 -17.041380 2.531161 2.621188 -29.909286 4.339565 7.992163 -2.466612 54.848810 22.800135 55.134134 28.686115 57.864932 36.430600 -73.563528 34.788578 0.004568 -7.491577 5.686925 -7.855296 -33.599452 -25.704119 4.667755 -44.405597 -64.519094 -57.708132 -35.937406 -12.351645 25.886333 1.013790 -7.690269 1.860666 0.843314 -3.762120 0.303094 -0.479778 5.054016 -3.770732 -0.176107 -0.090958 0.019818 0.307994 -7.593196 0.864118 0.161780 -2.160196 2.184921 0.203528 3.024692 -0.555339 0.113794 -0.043431 -0.023062 
